<svg width="606" height="766" viewBox="0 0 606 766" fill="none" xmlns="http://www.w3.org/2000/svg">
<path fill-rule="evenodd" clip-rule="evenodd" d="M484.616 340.58C479.033 338.139 473.36 336.511 467.777 335.29C492.81 309.244 505.777 283.198 498.033 270.378C492.09 260.509 475.341 260.611 453.909 268.649C455.35 266.817 456.701 264.884 458.052 262.951C465.706 251.861 473.45 237.923 477.322 220.321C485.156 185.017 474.62 156.936 449.137 142.692C436.08 135.367 421.492 133.027 408.976 132.721C396.639 132.518 384.393 134.044 373.857 136.282C351.615 140.962 330.634 148.898 310.284 159.683C299.478 165.482 288.762 171.587 278.317 178.404C280.118 165.991 278.587 155.817 273.094 149.102C252.473 123.565 183.947 156.224 120.013 222.051C56.0791 287.878 21.0506 361.946 41.6715 387.484C50.4061 398.268 67.6052 398.675 89.4868 390.638C81.9228 397.149 74.4488 404.169 67.1549 411.698C56.7995 422.483 46.444 433.573 38.1596 447.613C33.3871 455.651 29.335 464.502 27.534 474.88C25.8231 484.953 26.9037 494.313 29.335 502.147C34.2876 518.019 45.7236 530.431 64.1834 535.62C79.8517 540.097 94.0792 537.757 107.406 534.908C119.202 532.364 130.458 528.498 140.904 523.92C142.345 523.309 143.785 521.987 145.406 522.292C136.672 535.01 128.027 548.745 121.003 565.532C104.885 603.991 106.506 646.926 126.316 668.292C138.293 681.213 155.942 683.757 169.179 682.943C196.103 681.315 219.245 669.614 242.117 656.083C264.9 642.653 285.43 623.017 304.701 604.296C302.629 621.796 303.62 636.04 309.653 647.129C316.767 660.051 330.364 664.527 342.701 663.51C353.596 662.696 364.222 658.728 373.947 654.048C403.753 639.804 429.417 619.049 455.08 593.715C472.189 576.927 488.488 558.207 501.995 535.824C515.682 513.033 530.54 481.392 533.692 446.596C538.464 399.693 525.227 358.182 484.616 340.58Z" fill="#FBDBB9"/>
<path d="M68.596 416.377L67.1553 362.25C67.1553 362.25 67.4254 343.224 216.724 339.969L241.217 397.86L216.995 438.15L155.762 460.33L71.5676 438.15L68.596 416.377Z" fill="white"/>
<path d="M530.99 400.71L529.639 348.313C529.639 348.313 485.876 331.424 400.151 328.778H375.208L372.506 411.291L461.293 449.648L530.99 400.71Z" fill="#F5A14B"/>
<path d="M223.127 404.493C227.193 399.791 227.751 392.955 224.372 389.224C220.993 385.493 214.957 386.281 210.89 390.982C206.824 395.684 206.266 402.521 209.645 406.251C213.024 409.982 219.06 409.195 223.127 404.493Z" fill="#2E0807"/>
<path d="M64.5438 495.432L64.1836 494.517C64.8139 494.211 131.719 463.791 251.573 455.855V416.48H252.473V456.872H252.023C189.35 461.043 141.625 471.319 112.719 479.154C81.4727 487.7 64.7239 495.331 64.5438 495.432Z" fill="#2E0807"/>
<path d="M530.54 400.813L529.189 348.721C527.298 348.008 516.402 344.142 496.862 340.073C477.142 335.901 444.274 330.712 400.061 329.288H375.118V328.271H400.061C444.364 329.695 477.232 334.884 497.042 339.055C518.473 343.532 529.639 347.805 529.729 347.805L530 347.907V348.212L531.35 400.609L530.54 400.813Z" fill="#2E0807"/>
<path d="M500.644 349.026C477.051 343.43 440.402 336.919 400.061 337.224H380.34V336.206H400.061C440.402 335.901 477.142 342.514 500.824 348.009L500.644 349.026Z" fill="#2E0807"/>
<path d="M95.1596 359.1L94.9795 358.083C121.093 352.487 162.065 349.028 216.994 347.807V348.824C162.155 350.147 121.183 353.504 95.1596 359.1Z" fill="#2E0807"/>
<path d="M445.985 421.365C442.113 421.365 438.241 420.45 434.459 418.72C427.526 415.464 421.943 409.563 418.881 402.238C415.819 394.811 415.549 386.671 418.251 379.448C420.862 372.224 426.085 366.628 432.929 363.779C439.682 360.931 447.336 361.134 454.27 364.39C461.203 367.646 466.786 373.547 469.848 380.872C472.91 388.299 473.18 396.439 470.478 403.662C467.867 410.886 462.644 416.482 455.801 419.331C452.649 420.653 449.317 421.365 445.985 421.365ZM442.834 362.762C439.592 362.762 436.35 363.372 433.289 364.695C426.715 367.442 421.673 372.834 419.151 379.855C416.63 386.875 416.81 394.709 419.782 401.831C422.753 409.055 428.066 414.752 434.82 417.804C441.573 420.857 448.957 421.162 455.53 418.415C462.104 415.668 467.147 410.275 469.668 403.255C472.189 396.235 472.009 388.401 469.038 381.279C466.066 374.055 460.753 368.358 454 365.305C450.308 363.576 446.526 362.762 442.834 362.762Z" fill="#2E0807"/>
<path d="M465.997 401.588C470.502 389.22 464.497 374.704 452.585 369.165C440.673 363.626 427.365 369.161 422.86 381.529C418.355 393.897 424.36 408.413 436.272 413.952C448.184 419.491 461.492 413.955 465.997 401.588Z" fill="#2E0807"/>
<path d="M506.138 349.841C515.413 352.181 520.725 353.809 520.725 353.809L521.356 376.294L506.138 349.841Z" fill="#2E0807"/>
<path d="M521.917 382.814L521.017 382.845L521.563 403.49L522.463 403.46L521.917 382.814Z" fill="#2E0807"/>
<path d="M497.042 403.052C500.424 403.052 503.165 399.954 503.165 396.133C503.165 392.312 500.424 389.215 497.042 389.215C493.66 389.215 490.919 392.312 490.919 396.133C490.919 399.954 493.66 403.052 497.042 403.052Z" fill="#2E0807"/>
<path d="M68.1458 416.379L66.7051 362.252C66.7051 361.438 68.6861 342.718 216.724 339.36V340.378C71.0274 343.634 67.6056 362.049 67.5155 362.252L68.9563 416.379H68.1458Z" fill="#2E0807"/>
<path d="M155.762 430.622C149.999 430.622 144.956 428.384 141.084 424.213C136.672 419.329 134.51 412.309 135.141 404.475C135.771 396.64 139.013 389.01 144.326 382.905C155.311 370.188 171.7 368.153 180.885 378.225C185.297 383.109 187.458 390.129 186.828 397.963C186.198 405.797 182.956 413.428 177.643 419.532C172.33 425.637 165.667 429.503 158.733 430.419C157.653 430.521 156.662 430.622 155.762 430.622ZM166.207 372.731C159.003 372.731 151.169 376.394 145.046 383.516C139.913 389.519 136.672 396.946 136.131 404.475C135.501 412.004 137.572 418.719 141.804 423.399C146.037 428.079 152.07 430.215 158.733 429.3C165.397 428.384 171.88 424.721 177.103 418.719C182.236 412.716 185.477 405.289 186.018 397.76C186.648 390.231 184.577 383.516 180.345 378.836C176.473 374.766 171.52 372.731 166.207 372.731Z" fill="#2E0807"/>
<path d="M174.661 416.251C183.733 405.762 184.974 390.51 177.434 382.185C169.893 373.859 156.426 375.613 147.355 386.102C138.283 396.591 137.041 411.843 144.582 420.169C152.122 428.494 165.589 426.74 174.661 416.251Z" fill="#2E0807"/>
<path d="M203.472 438.974L203.466 439.991L248.49 440.295L248.496 439.278L203.472 438.974Z" fill="black"/>
<path d="M150.178 355.945L186.558 450.26C188.539 455.448 193.041 458.806 198.084 458.908L438.601 461.553C441.392 461.553 443.103 458.094 441.663 455.448L388.895 357.471C386.643 353.401 382.771 350.858 378.449 350.756L154.14 349.128C150.989 349.128 148.918 352.689 150.178 355.945Z" fill="#FEF3E9"/>
<path d="M438.691 461.961C438.601 461.961 438.601 461.961 438.691 461.961L198.084 459.316C192.951 459.214 188.269 455.755 186.198 450.362L149.819 356.047C149.188 354.42 149.278 352.487 150.179 350.96C151.079 349.434 152.52 348.519 154.141 348.519L378.539 350.045C382.952 350.045 387.004 352.69 389.345 356.963L442.113 454.941C442.923 456.365 442.923 458.095 442.203 459.519C441.393 461.045 440.132 461.961 438.691 461.961ZM150.539 355.742L186.918 450.057C188.809 455.043 193.221 458.298 197.994 458.4L438.511 461.045C439.682 461.045 440.672 460.435 441.213 459.214C441.753 458.095 441.753 456.772 441.123 455.653L388.355 357.675C386.193 353.707 382.411 351.266 378.269 351.266L154.141 349.638C152.79 349.638 151.619 350.35 150.899 351.571C150.179 352.792 150.089 354.318 150.539 355.742Z" fill="#2E0807"/>
<path d="M196.013 414.854L421.222 417.295L387.274 354.826C385.293 351.163 376.018 350.451 372.146 350.451L165.577 349.026L188.899 409.461C190.16 412.717 192.952 414.752 196.013 414.854Z" fill="#2E0807"/>
<path d="M421.402 417.397H421.222L196.013 414.955C192.861 414.955 190.07 412.819 188.809 409.563L165.397 349.026H165.577L372.146 350.451C374.307 350.451 385.113 350.756 387.364 354.826L421.402 417.397ZM165.757 349.23L188.989 409.461C190.16 412.615 192.952 414.65 196.013 414.65L421.042 417.092L387.184 354.927C385.023 350.858 373.497 350.654 372.146 350.654L165.757 349.23Z" fill="#2E0807"/>
<path d="M400.151 417.09C401.862 420.244 399.881 424.314 396.549 424.212L354.047 423.703C351.165 423.703 348.554 421.974 347.113 419.227L345.583 416.378" fill="#F5A14B"/>
<path d="M396.55 424.823L353.957 424.314C350.896 424.314 348.194 422.483 346.573 419.634L345.042 416.785L345.853 416.276L347.384 419.125C348.824 421.77 351.256 423.297 353.957 423.297L396.46 423.805C397.81 423.805 399.071 422.991 399.701 421.669C400.332 420.346 400.332 418.718 399.611 417.396L400.422 416.887C401.322 418.515 401.322 420.55 400.512 422.177C399.701 423.805 398.261 424.823 396.55 424.823Z" fill="#2E0807"/>
<path d="M150.178 295.001L186.558 389.316C188.539 394.505 193.041 397.863 198.084 397.964L433.468 400.508C438.511 400.61 441.663 394.302 439.051 389.52L388.895 296.527C386.643 292.458 382.771 289.914 378.449 289.812L154.14 288.185C150.989 288.185 148.918 291.746 150.178 295.001Z" fill="#FEF3E9"/>
<path d="M433.559 400.916L198.084 398.372C192.951 398.271 188.269 394.811 186.198 389.419L149.819 295.104C149.188 293.476 149.278 291.543 150.179 290.017C151.079 288.491 152.52 287.575 154.141 287.575L378.539 289.101C382.952 289.101 387.004 291.747 389.345 296.02L439.502 389.012C440.852 391.454 440.852 394.404 439.592 396.846C438.331 399.492 436.08 400.916 433.559 400.916ZM150.539 294.799L186.918 389.114C188.809 394.099 193.221 397.355 197.994 397.457L433.378 400C433.378 400 433.378 400 433.469 400C435.63 400 437.611 398.779 438.691 396.541C439.772 394.404 439.772 391.861 438.601 389.724L388.445 296.732C386.284 292.764 382.502 290.322 378.359 290.322L154.141 288.694C152.79 288.694 151.619 289.407 150.899 290.627C150.179 291.848 150.089 293.476 150.539 294.799Z" fill="#2E0807"/>
<path d="M310.194 348.926C310.194 357.574 301.55 364.594 290.834 364.594C280.118 364.594 271.474 357.574 271.474 348.926C271.474 340.278 283 344.144 293.715 344.144C304.341 344.144 310.194 340.379 310.194 348.926Z" fill="#F5A14B"/>
<path d="M290.833 365.102C279.938 365.102 271.023 357.879 271.023 348.925C271.023 347.094 271.473 345.771 272.464 344.754C274.895 342.211 280.028 342.617 285.881 343.126C288.402 343.33 291.104 343.533 293.715 343.533C296.596 343.533 299.028 343.228 301.189 343.024C304.971 342.617 307.672 342.312 309.203 343.94C310.104 344.958 310.554 346.484 310.554 348.925C310.644 357.879 301.729 365.102 290.833 365.102ZM279.307 343.838C276.516 343.838 274.265 344.245 273.004 345.568C272.194 346.382 271.833 347.501 271.833 349.027C271.833 357.37 280.298 364.187 290.743 364.187C301.189 364.187 309.653 357.37 309.653 349.027C309.653 346.891 309.293 345.568 308.573 344.856C307.312 343.533 304.791 343.838 301.189 344.245C299.028 344.449 296.506 344.754 293.625 344.754C291.014 344.754 288.312 344.551 285.701 344.347C283.45 344.042 281.288 343.838 279.307 343.838Z" fill="#2E0807"/>
<path d="M196.013 353.91L421.222 356.352L387.274 293.984C385.293 290.321 376.018 289.609 372.146 289.609L165.577 288.185L188.899 348.619C190.16 351.773 192.952 353.808 196.013 353.91Z" fill="#2E0807"/>
<path d="M421.402 356.454H421.222L196.013 354.012C192.861 354.012 190.07 351.875 188.809 348.62L165.397 288.083H165.577L372.146 289.507C374.307 289.507 385.113 289.813 387.364 293.882L421.402 356.454ZM165.757 288.287L188.989 348.518C190.16 351.672 192.952 353.707 196.013 353.707L421.042 356.148L387.184 293.984C385.023 289.914 373.497 289.711 372.146 289.711L165.757 288.287Z" fill="#2E0807"/>
<path d="M327.843 365.102C316.947 365.102 308.033 357.879 308.033 348.925C308.033 347.094 308.483 345.771 309.473 344.754C311.905 342.211 317.037 342.617 322.891 343.126C325.412 343.33 328.113 343.533 330.725 343.533C333.606 343.533 336.038 343.228 338.199 343.024C341.981 342.617 344.682 342.312 346.213 343.94C347.113 344.958 347.564 346.484 347.564 348.925C347.654 357.879 338.739 365.102 327.843 365.102ZM316.407 343.838C313.616 343.838 311.364 344.245 310.104 345.568C309.293 346.382 308.933 347.501 308.933 349.027C308.933 357.37 317.398 364.187 327.843 364.187C338.289 364.187 346.753 357.37 346.753 349.027C346.753 346.891 346.393 345.568 345.673 344.856C344.412 343.533 341.891 343.838 338.289 344.245C336.128 344.449 333.606 344.754 330.725 344.754C328.113 344.754 325.412 344.551 322.801 344.347C320.549 344.042 318.298 343.838 316.407 343.838Z" fill="black"/>
<path d="M150.178 231.205L186.558 325.52C188.539 330.709 193.041 334.067 198.084 334.168L433.468 336.712C438.511 336.814 441.663 330.506 439.051 325.724L388.895 232.731C386.643 228.662 382.771 226.118 378.449 226.016L154.14 224.49C150.989 224.49 148.918 228.051 150.178 231.205Z" fill="#FEF3E9"/>
<path d="M433.559 337.222L198.084 334.678C192.951 334.576 188.269 331.117 186.198 325.725L149.819 231.41C149.188 229.782 149.278 227.849 150.179 226.323C151.079 224.797 152.52 223.881 154.141 223.881L378.539 225.407C382.952 225.407 387.004 228.052 389.345 232.325L439.502 325.318C440.852 327.76 440.852 330.71 439.592 333.152C438.331 335.695 436.08 337.222 433.559 337.222ZM150.539 231.003L186.918 325.318C188.809 330.303 193.221 333.559 197.994 333.661L433.378 336.204C433.378 336.204 433.378 336.204 433.469 336.204C435.63 336.204 437.611 334.881 438.691 332.745C439.772 330.608 439.772 328.065 438.601 325.928L388.445 232.936C386.284 228.968 382.502 226.526 378.359 226.526L154.141 225C152.88 225 151.619 225.712 150.899 226.933C150.179 228.154 150.089 229.68 150.539 231.003Z" fill="#2E0807"/>
<path d="M165.577 224.391L203.397 322.47L431.577 324.912L381.421 231.818C379.44 228.155 375.928 225.917 372.056 225.815L165.577 224.391Z" fill="#F5A14B"/>
<path d="M432.388 325.419H431.577L203.127 322.978L203.037 322.672L164.856 223.881H165.577L372.146 225.305C376.108 225.305 379.8 227.645 381.871 231.512L432.388 325.419ZM203.757 321.96L430.857 324.402L381.061 232.02C379.17 228.459 375.838 226.323 372.146 226.323L166.297 224.898L203.757 321.96Z" fill="#2E0807"/>
<path d="M190.971 290.117L421.223 292.559L387.545 229.987C385.564 226.325 376.019 225.816 372.147 225.816L165.578 224.392L190.971 290.117Z" fill="#2E0807"/>
<path d="M421.403 292.661H421.222L190.881 290.219V290.117L165.487 224.29H165.667L372.237 225.714C376.199 225.714 385.744 226.223 387.725 229.886L421.403 292.661ZM191.061 289.914L421.042 292.356L387.365 229.988C385.384 226.427 376.019 225.918 372.057 225.918L165.757 224.595L191.061 289.914Z" fill="#2E0807"/>
<path d="M302.81 301.308C289.663 301.308 278.947 292.558 278.947 281.875C278.947 279.739 279.488 278.111 280.658 276.89C283.54 273.838 289.753 274.346 296.867 274.957C299.928 275.262 303.17 275.465 306.322 275.465C309.744 275.465 312.805 275.16 315.417 274.855C319.919 274.346 323.251 274.041 325.052 275.872C326.132 276.992 326.673 278.925 326.673 281.773C326.763 292.66 316.047 301.308 302.81 301.308ZM288.943 275.567C285.521 275.567 282.819 276.076 281.198 277.704C280.208 278.721 279.758 280.044 279.758 281.977C279.758 292.151 290.113 300.392 302.72 300.392C315.417 300.392 325.682 292.151 325.682 281.977C325.682 279.433 325.232 277.704 324.331 276.788C322.8 275.16 319.649 275.567 315.326 275.974C312.625 276.279 309.653 276.585 306.142 276.585C302.9 276.585 299.748 276.279 296.597 276.076C293.985 275.771 291.284 275.567 288.943 275.567Z" fill="black"/>
<path d="M150.179 168.433L186.559 262.748C188.54 267.937 193.042 271.294 198.085 271.396L433.469 273.939C438.512 274.041 441.664 267.733 439.052 262.951L388.896 169.959C386.644 165.889 382.772 163.346 378.45 163.244L154.141 161.616C150.99 161.616 148.919 165.279 150.179 168.433Z" fill="#FEF3E9"/>
<path d="M433.559 274.345L198.085 271.802C192.952 271.7 188.27 268.241 186.198 262.849L149.729 168.635C149.099 167.007 149.189 165.074 150.089 163.548C150.99 162.022 152.431 161.106 154.051 161.106L378.45 162.633C382.862 162.633 386.915 165.278 389.256 169.551L439.412 262.543C440.763 264.985 440.763 267.936 439.502 270.377C438.332 272.921 436.081 274.345 433.559 274.345ZM150.54 168.228L186.919 262.543C188.81 267.529 193.222 270.784 197.995 270.886L433.379 273.43C433.379 273.43 433.379 273.43 433.469 273.43C435.63 273.43 437.611 272.107 438.692 269.971C439.773 267.834 439.773 265.29 438.602 263.154L388.445 170.161C386.284 166.194 382.502 163.752 378.36 163.752L154.141 162.124C152.791 162.124 151.62 162.836 150.9 164.057C150.179 165.38 150.089 166.906 150.54 168.228Z" fill="#2E0807"/>
<path d="M370.719 252.936L370.71 253.953L413.033 254.41L413.041 253.392L370.719 252.936Z" fill="#2E0807"/>
<path d="M314.417 252.312L314.409 253.329L358.262 253.802L358.27 252.785L314.417 252.312Z" fill="#2E0807"/>
<path d="M259.009 251.683L259 252.7L299.792 253.14L299.801 252.123L259.009 251.683Z" fill="#2E0807"/>
<path d="M198.918 250.998L198.909 252.016L245.554 252.519L245.562 251.501L198.918 250.998Z" fill="#2E0807"/>
<path d="M176.473 179.726L302.27 180.54L306.322 192.647L180.615 191.731L176.473 179.726Z" fill="white"/>
<path d="M307.042 193.157L180.255 192.241L175.753 179.116L302.45 179.93L307.042 193.157ZM180.886 191.224L305.692 192.037L301.91 180.948L177.104 180.134L180.886 191.224Z" fill="#2E0807"/>
<path d="M181.965 203.839L192.951 231.309H250.762L238.605 203.839H181.965Z" fill="white"/>
<path d="M251.482 231.818H192.591L181.245 203.229H238.876L251.482 231.818ZM193.221 230.801H250.041L238.335 204.246H182.686L193.221 230.801Z" fill="#2E0807"/>
<path d="M206.649 203.784L205.828 204.201L211.298 217.932L212.119 217.515L206.649 203.784Z" fill="black"/>
<path d="M229.089 217.389L228.268 217.807L233.737 231.538L234.559 231.12L229.089 217.389Z" fill="black"/>
<path d="M243.469 217.065H187.459V218.083H243.469V217.065Z" fill="black"/>
<path d="M394.34 225.558C398.349 214.177 388.677 199.139 372.735 191.97C356.794 184.801 340.622 188.216 336.612 199.597C332.603 210.978 342.276 226.016 358.217 233.184C374.158 240.353 390.331 236.939 394.34 225.558Z" fill="#F5A14B"/>
<path d="M374.668 237.412C369.355 237.412 363.592 236.089 358.099 233.648C341.981 226.424 332.165 211.061 336.308 199.462C338.289 193.765 343.241 189.898 350.175 188.372C357.109 186.948 365.123 188.067 372.957 191.526C389.075 198.75 398.891 214.113 394.748 225.712C392.767 231.409 387.815 235.275 380.881 236.802C378.81 237.209 376.739 237.412 374.668 237.412ZM356.298 188.779C354.227 188.779 352.246 188.983 350.355 189.39C343.691 190.814 339.009 194.477 337.118 199.869C333.246 210.959 342.791 225.712 358.459 232.732C366.113 236.191 373.947 237.31 380.701 235.886C387.365 234.462 392.047 230.799 393.938 225.406C397.81 214.317 388.265 199.564 372.597 192.544C367.104 190 361.521 188.779 356.298 188.779Z" fill="#2E0807"/>
<path d="M476.19 561.184C483.515 541.073 475.956 518.495 459.307 510.753C442.658 503.011 423.223 513.038 415.898 533.148C408.573 553.259 416.132 575.837 432.781 583.579C449.43 591.321 468.865 581.294 476.19 561.184Z" fill="#2E0807"/>
<path d="M470.907 561.87C478.232 541.76 470.673 519.181 454.024 511.439C437.375 503.697 417.94 513.724 410.615 533.835C403.29 553.945 410.848 576.524 427.497 584.266C444.147 592.008 463.582 581.981 470.907 561.87Z" fill="#F9C998"/>
<path d="M439.231 587.307C435.179 587.307 431.127 586.391 427.345 584.661C419.151 580.897 412.847 573.47 409.606 563.804C406.364 554.139 406.544 543.456 410.146 533.587C413.748 523.718 420.321 515.985 428.606 511.712C436.89 507.439 445.985 507.134 454.179 511C462.373 514.765 468.677 522.192 471.919 531.857C475.16 541.523 474.98 552.206 471.378 562.075C467.776 571.944 461.203 579.676 452.918 583.949C448.416 586.188 443.824 587.307 439.231 587.307ZM442.203 509.27C437.7 509.27 433.198 510.39 428.876 512.628C420.771 516.799 414.378 524.43 410.866 533.994C407.354 543.558 407.174 554.037 410.326 563.499C413.478 572.859 419.601 580.083 427.525 583.746C435.449 587.408 444.274 587.205 452.378 583.033C460.482 578.862 466.876 571.231 470.388 561.668C473.9 552.104 474.08 541.624 470.928 532.162C467.776 522.802 461.653 515.578 453.729 511.916C450.127 510.084 446.165 509.27 442.203 509.27Z" fill="#2E0807"/>
<path d="M281.281 59.8362C288.404 46.6445 284.059 28.9759 271.577 20.3722C259.095 11.7686 243.202 15.488 236.08 28.6797C228.957 41.8714 233.302 59.5401 245.784 68.1437C258.266 76.7473 274.159 73.0279 281.281 59.8362Z" fill="#2E0807"/>
<path d="M281.56 55.2796C288.682 42.0878 284.338 24.4192 271.856 15.8156C259.373 7.21193 243.481 10.9313 236.358 24.123C229.235 37.3148 233.58 54.9834 246.062 63.5871C258.544 72.1907 274.437 68.4713 281.56 55.2796Z" fill="#F5A14B"/>
<path d="M260.397 68.7269C255.445 68.7269 250.402 67.2008 245.81 64.0468C233.113 55.297 228.7 37.2886 235.994 23.8587C243.198 10.4287 259.497 6.66423 272.103 15.3123C284.8 24.0621 289.212 42.0705 281.919 55.5005C277.326 64.1485 269.042 68.7269 260.397 68.7269ZM257.426 11.6496C249.051 11.6496 241.127 16.1263 236.715 24.3674C229.691 37.2886 234.013 54.6865 246.26 63.1311C258.506 71.5757 274.175 67.913 281.198 54.9917C288.222 42.0705 283.9 24.6726 271.653 16.228C267.151 13.1757 262.198 11.6496 257.426 11.6496Z" fill="#2E0807"/>
<path d="M455.26 527.584C455.26 527.584 501.185 523.718 525.768 520.055C550.351 516.393 555.213 506.015 555.213 506.015L551.161 390.232C538.194 412.005 416 413.226 416 413.226L416.99 452.295" fill="#FBDBB9"/>
<path d="M525.497 453.311C512.711 469.793 497.403 481.697 479.573 488.921C468.047 496.246 455.801 501.13 442.924 503.368L455.26 527.583C455.26 527.583 501.185 523.716 525.768 520.054C550.351 516.391 555.213 506.013 555.213 506.013L551.791 407.73C546.118 424.823 537.384 440.084 525.497 453.311Z" fill="#F9C998"/>
<path d="M249.592 448.021L252.653 563.499C252.653 563.499 431.938 570.112 456.341 566.246L453.28 451.481C453.28 451.481 302.27 454.838 249.592 448.021Z" fill="#F7B168"/>
<path d="M420.772 451.991C415.189 468.372 406.635 482.921 395.198 495.638C382.412 512.121 367.104 524.025 349.274 531.248C332.165 542.135 313.615 547.527 293.535 547.324C279.217 547.73 265.44 546.001 252.113 542.033L252.653 563.5C252.653 563.5 431.938 570.114 456.341 566.248L453.279 451.482C453.279 451.482 440.312 451.788 420.772 451.991Z" fill="#F5A14B"/>
<path d="M420.232 567.977C360.801 567.977 254.004 564.111 252.653 564.01H252.203L249.142 447.413L249.682 447.515C301.729 454.332 451.749 451.076 453.28 450.974H453.73L456.791 566.655L456.431 566.757C450.848 567.672 437.521 567.977 420.232 567.977ZM253.104 562.992C262.829 563.297 430.948 569.402 455.891 565.841L452.919 452.093C443.825 452.297 301.279 455.145 250.132 448.634L253.104 562.992Z" fill="#2E0807"/>
<path d="M206.368 497.164L205.017 446.598C205.017 446.598 79.0407 435.61 49.8652 401.628L52.9269 517.512C52.9269 517.512 52.5667 529.416 96.9601 541.32L206.368 497.164Z" fill="#F7B168"/>
<path d="M187.189 474.576C170.08 485.462 151.53 490.854 131.449 490.651C105.155 491.465 80.4824 484.75 57.4302 470.709C55.4492 469.082 53.5582 467.454 51.5771 465.928L52.9279 517.613C52.9279 517.613 52.5677 529.516 96.9611 541.42L206.369 497.162L205.559 464.91C199.705 468.675 193.672 471.93 187.189 474.576Z" fill="#F5A14B"/>
<path d="M105.605 514.865C99.7518 514.865 93.8087 512.932 88.4959 509.27C74.8087 499.808 69.3157 481.698 76.1594 468.878C83.093 456.059 99.8419 453.311 113.529 462.773C120.193 467.352 125.055 474.067 127.396 481.596C129.738 489.226 129.197 496.857 125.776 503.063C122.444 509.27 116.681 513.339 109.567 514.458C108.396 514.764 107.046 514.865 105.605 514.865ZM96.4201 458.195C88.3158 458.195 80.9319 462.061 76.9698 469.488C70.3063 481.799 75.7091 499.299 88.9461 508.456C95.4296 512.932 102.723 514.764 109.567 513.645C116.411 512.525 121.904 508.659 125.145 502.656C128.387 496.654 128.927 489.328 126.676 482.003C124.425 474.576 119.652 468.166 113.169 463.689C107.766 459.925 101.913 458.195 96.4201 458.195Z" fill="#2E0807"/>
<path d="M121.442 499.996C127.114 489.491 122.592 474.688 111.341 466.933C100.09 459.178 86.3713 461.407 80.6991 471.913C75.0269 482.418 79.5493 497.221 90.8002 504.976C102.051 512.731 115.77 510.502 121.442 499.996Z" fill="#2E0807"/>
<path d="M301.256 507.044C301.951 502.561 298.901 498.211 294.444 497.328C289.986 496.445 285.808 499.363 285.113 503.846C284.417 508.33 287.467 512.68 291.924 513.563C296.382 514.446 300.56 511.527 301.256 507.044Z" fill="#2E0807"/>
<path d="M416.271 510.278C416.967 505.795 413.917 501.444 409.459 500.561C405.002 499.678 400.824 502.597 400.128 507.08C399.433 511.563 402.482 515.913 406.94 516.796C411.398 517.679 415.575 514.761 416.271 510.278Z" fill="#2E0807"/>
<path d="M95.25 474.68C95.25 474.68 186.648 500.929 290.743 504.897L293.805 621.087C293.805 621.087 180.075 618.543 98.3116 587.919L95.25 474.68Z" fill="white"/>
<path d="M294.255 621.696H293.805C292.634 621.696 179.084 618.847 98.1314 588.528L97.8612 588.426V588.121L94.8896 474.17L95.4299 474.373C96.3304 474.679 187.999 500.725 290.833 504.591H291.283L294.255 621.696ZM98.6716 587.612C176.833 616.812 285.25 620.373 293.265 620.577L290.293 505.405C191.781 501.539 103.714 477.527 95.7001 475.289L98.6716 587.612Z" fill="#2E0807"/>
<path d="M284.298 542.862L283.398 542.893L284.434 582.048L285.334 582.017L284.298 542.862Z" fill="#2E0807"/>
<path d="M255.714 512.524C201.326 509.065 155.041 499.806 125.866 492.684L126.046 491.667C155.221 498.789 201.416 508.047 255.804 511.507L255.714 512.524Z" fill="#2E0807"/>
<path d="M123.165 491.464C110.108 488.208 102.634 485.868 102.634 485.868L103.264 510.286L123.165 491.464Z" fill="#2E0807"/>
<path d="M103.887 513.559L102.987 513.59L104.097 555.593L104.997 555.562L103.887 513.559Z" fill="#2E0807"/>
<path d="M104.615 559.326L105.245 582.625C109.387 584.456 114.7 586.186 120.823 587.916C120.823 587.814 113.89 571.637 104.615 559.326Z" fill="#2E0807"/>
<path d="M284.89 585.474L285.61 611.927C285.61 611.927 277.326 611.214 264.179 609.892L284.89 585.474Z" fill="#2E0807"/>
<path d="M261.568 610.097C226.179 606.435 161.165 598.804 123.795 589.139L123.975 588.121C161.255 597.787 226.179 605.316 261.568 608.978V610.097Z" fill="#2E0807"/>
<path d="M259.947 512.324L283.63 539.184L282.909 513.342C274.805 513.138 266.791 512.833 258.957 512.324" fill="#2E0807"/>
<path d="M138.969 542.054C139.724 537.183 136.406 532.456 131.556 531.495C126.706 530.534 122.162 533.704 121.407 538.575C120.651 543.445 123.969 548.172 128.819 549.133C133.669 550.094 138.213 546.924 138.969 542.054Z" fill="#2E0807"/>
<path d="M259.327 561.139C260.083 556.269 256.765 551.542 251.915 550.581C247.065 549.62 242.521 552.79 241.765 557.66C241.01 562.531 244.328 567.258 249.178 568.219C254.028 569.18 258.572 566.01 259.327 561.139Z" fill="#2E0807"/>
<path d="M192.771 578.15C188.899 578.15 184.847 577.235 180.885 575.505C166.928 568.993 159.544 552.816 164.406 539.488C169.269 526.058 184.577 520.462 198.534 526.974C212.492 533.485 219.876 549.662 215.013 562.991C211.591 572.554 202.677 578.15 192.771 578.15ZM186.738 525.143C177.193 525.143 168.639 530.535 165.307 539.793C160.624 552.715 167.738 568.281 181.245 574.488C194.753 580.796 209.52 575.403 214.203 562.482C218.885 549.561 211.772 533.994 198.264 527.788C194.482 525.957 190.52 525.143 186.738 525.143Z" fill="#2E0807"/>
<path d="M210.757 560.858C214.77 549.841 208.665 536.559 197.121 531.191C185.577 525.823 172.965 530.402 168.953 541.419C164.94 552.435 171.045 565.718 182.589 571.086C194.133 576.454 206.745 571.874 210.757 560.858Z" fill="#2E0807"/>
<path d="M105.939 413.549C109.276 409.691 109.732 404.08 106.957 401.017C104.183 397.954 99.229 398.598 95.8923 402.456C92.5555 406.314 92.0996 411.925 94.8739 414.988C97.6483 418.051 102.602 417.407 105.939 413.549Z" fill="#2E0807"/>
<path d="M351.436 539.589C347.474 539.589 343.512 538.674 339.64 536.944C332.526 533.586 326.853 527.584 323.701 519.953C320.549 512.322 320.279 503.979 323.071 496.552C328.654 481.189 345.223 474.271 359.99 481.087C374.758 487.904 382.232 506.014 376.559 521.479C373.858 528.906 368.545 534.604 361.521 537.554C358.279 538.979 354.858 539.589 351.436 539.589ZM348.194 479.561C337.568 479.561 327.843 486.073 323.881 497.061C321.27 504.285 321.45 512.221 324.512 519.648C327.573 527.075 333.066 532.874 340 536.13C346.933 539.386 354.497 539.589 361.251 536.74C368.005 533.892 373.137 528.398 375.749 521.174C381.152 506.32 373.948 488.82 359.63 482.207C355.848 480.375 351.976 479.561 348.194 479.561Z" fill="#2E0807"/>
<path d="M371.937 519.334C376.556 506.654 370.419 491.781 358.231 486.114C346.043 480.446 332.419 486.131 327.801 498.81C323.182 511.49 329.319 526.363 341.507 532.03C353.695 537.697 367.319 532.013 371.937 519.334Z" fill="#2E0807"/>
<path d="M408.796 559.836C366.023 559.836 308.483 559.429 292.004 557.19L292.094 556.173C311.904 558.818 393.668 558.818 427.886 558.716V559.734C422.123 559.836 415.639 559.836 408.796 559.836Z" fill="#2E0807"/>
<path d="M448.237 537.046L448.867 559.226C448.867 559.226 441.933 559.226 430.948 559.327C430.858 559.226 446.706 537.656 448.237 537.046Z" fill="#2E0807"/>
<path d="M447.342 485.175L446.442 485.205L447.739 534.225L448.639 534.195L447.342 485.175Z" fill="#2E0807"/>
<path d="M446.706 480.477L446.075 457.28C439.412 457.992 432.478 458.501 425.364 458.908L446.706 480.477Z" fill="#2E0807"/>
<path d="M379.801 460.739C340.18 460.739 301.009 458.501 277.687 456.771L277.777 455.754C309.563 457.992 370.616 461.451 422.393 458.704V459.722C408.616 460.434 394.118 460.739 379.801 460.739Z" fill="#2E0807"/>
<path d="M258.146 477.526L257.516 454.634C257.516 454.634 263.549 455.142 273.814 455.956L258.146 477.526Z" fill="#2E0807"/>
<path d="M455.26 528.092L455.17 527.075C455.621 527.075 501.365 523.208 525.678 519.546C548.37 516.086 554.133 507.031 554.763 505.912L550.711 391.656C543.957 400.202 519.825 406.51 478.673 410.376C446.886 413.327 416.18 413.734 415.91 413.734V412.716C417.17 412.716 538.104 411.19 550.711 389.926L551.521 388.604L555.664 506.116L555.574 506.217C555.393 506.624 550.351 516.799 525.768 520.461C501.455 524.226 455.711 528.092 455.26 528.092Z" fill="#F49696"/>
<path d="M455.26 528.092L455.17 527.075C455.62 527.075 501.365 523.208 525.677 519.546C548.369 516.086 554.133 507.031 554.763 505.912L550.711 391.656C543.957 400.202 519.824 406.51 478.673 410.376C448.957 413.123 420.322 413.632 416.36 413.734L417.35 452.294H416.45L415.369 412.716H415.819C417.08 412.716 538.014 411.19 550.621 389.926L551.431 388.604L555.573 506.116L555.483 506.217C555.303 506.624 550.26 516.799 525.677 520.461C501.455 524.226 455.711 528.092 455.26 528.092Z" fill="#2E0807"/>
<path d="M423.884 447.216L422.983 447.246L423.11 452.026L424.01 451.996L423.884 447.216Z" fill="#2E0807"/>
<path d="M423.293 442.12L422.753 422.891C426.355 422.789 431.398 422.687 437.251 422.382L423.293 442.12Z" fill="#2E0807"/>
<path d="M442.654 422.688V421.67C528.019 417.703 547.199 406.206 550.981 399.796L551.701 400.406C542.607 415.769 479.483 420.958 442.654 422.688Z" fill="#2E0807"/>
<path d="M455.08 519.442L454.99 518.424C455.44 518.424 501.185 514.558 525.498 510.895C538.104 508.962 545.308 505.401 549.18 502.654C553.322 499.704 554.583 497.16 554.583 497.16L555.393 497.669C555.213 498.076 550.171 508.25 525.588 511.913C501.275 515.576 455.531 519.442 455.08 519.442Z" fill="#2E0807"/>
<path d="M535.493 482.818C520.815 482.818 508.658 469.592 508.208 452.906C507.758 435.915 519.644 421.671 534.682 421.163C541.076 420.959 547.289 423.299 552.332 427.674L552.512 427.776L553.772 474.984L553.592 475.188C548.82 479.97 542.696 482.615 536.393 482.92C536.033 482.818 535.763 482.818 535.493 482.818ZM535.493 422.18C535.222 422.18 534.952 422.18 534.682 422.18C520.094 422.689 508.658 436.424 509.109 452.906C509.559 469.388 521.715 482.31 536.303 481.801C542.336 481.597 548.189 479.054 552.782 474.475L551.521 428.285C547.019 424.317 541.346 422.18 535.493 422.18Z" fill="#2E0807"/>
<path d="M552.241 434.487C547.919 429.196 541.706 426.042 534.862 426.246C522.256 426.653 512.44 438.556 512.801 452.699C513.161 466.942 523.696 478.032 536.213 477.625C543.057 477.422 549.09 473.759 553.142 468.265L552.241 434.487Z" fill="#2E0807"/>
<path d="M469.871 476.937C473.948 476.799 477.132 472.134 476.983 466.518C476.835 460.901 473.41 456.459 469.334 456.597C465.257 456.734 462.073 461.399 462.222 467.016C462.37 472.633 465.795 477.074 469.871 476.937Z" fill="#2E0807"/>
<path d="M96.8706 541.826C52.6572 530.024 52.4771 518.018 52.4771 517.51L49.4155 400.404L50.226 401.32C78.9511 434.793 203.847 446.087 205.108 446.188H205.468L206.819 497.161H205.918L204.568 447.104C196.733 446.392 79.8516 434.997 50.316 402.846L53.3776 517.408C53.3776 517.509 53.9179 529.21 97.1408 540.707L96.8706 541.826Z" fill="#2E0807"/>
<path d="M170.529 451.175C140.183 445.884 84.2637 434.082 49.9556 415.056L50.3158 414.141C84.4438 433.166 140.363 444.867 170.619 450.157L170.529 451.175Z" fill="#2E0807"/>
<path d="M197.814 474.371L197.274 454.837C197.274 454.837 190.7 454.023 179.984 452.293L197.814 474.371Z" fill="#2E0807"/>
<path d="M198.474 482.725L197.574 482.756L197.896 494.96L198.796 494.93L198.474 482.725Z" fill="#2E0807"/>
<path d="M96.6014 531.553C95.1606 531.146 61.1226 522.498 52.478 512.425L53.1084 511.713C61.5728 521.582 96.5113 530.433 96.7815 530.535L96.6014 531.553Z" fill="#2E0807"/>
<path d="M49.4157 401.831C49.4157 401.73 48.9655 399.797 50.4063 397.355C52.0271 394.506 56.4394 390.843 67.8755 388.91L67.9655 389.928C56.8897 391.759 52.7475 395.218 51.2167 397.863C49.956 399.898 50.3162 401.526 50.3162 401.628L49.4157 401.831Z" fill="#2E0807"/>
<path d="M92.1881 358.083C80.3919 361.746 74.4487 364.9 74.4487 364.9L75.2592 394.914L92.1881 358.083Z" fill="#2E0807"/>
<path d="M75.8386 400.817L74.9385 400.848L75.4142 418.849L76.3144 418.818L75.8386 400.817Z" fill="#2E0807"/>
<path d="M551.521 389.315L550.711 388.908C550.711 388.806 551.161 387.483 550.17 385.449C548.639 382.295 544.047 377.614 530.18 373.545L530.36 372.527C544.587 376.699 549.36 381.582 550.981 385.042C552.151 387.585 551.521 389.315 551.521 389.315Z" fill="#2E0807"/>
<path d="M258.676 480.681L257.776 480.71L258.348 503.084L259.249 503.055L258.676 480.681Z" fill="#2E0807"/>
<path d="M32.4862 303.955C28.0739 303.955 23.3013 302.734 18.799 300.292C6.82262 293.882 0.0690467 281.266 3.94109 272.211C7.72309 263.054 20.5999 260.816 32.5762 267.226C38.3393 270.278 43.1118 274.856 45.9033 280.147C48.7848 285.438 49.3251 290.83 47.4341 295.307C45.5431 299.783 41.581 302.734 36.0881 303.649C35.0075 303.853 33.7469 303.955 32.4862 303.955ZM18.889 264.479C12.4056 264.479 6.91267 267.327 4.75152 272.516C1.14962 281.164 7.63305 293.17 19.2492 299.274C24.9222 302.225 30.8653 303.446 36.0881 302.53C41.2208 301.615 45.0028 298.868 46.7137 294.798C48.4246 290.626 47.8843 285.641 45.1829 280.554C42.4815 275.467 37.889 270.99 32.216 268.04C27.7137 265.7 23.0312 264.479 18.889 264.479Z" fill="#2E0807"/>
<path d="M49.7354 288.774C53.4351 279.873 46.8729 267.584 35.0784 261.325C23.2838 255.067 10.7233 257.209 7.02357 266.111C3.32389 275.012 9.88608 287.301 21.6806 293.559C33.4752 299.817 46.0357 297.675 49.7354 288.774Z" fill="#F7B168"/>
<path d="M35.098 297.646C30.7757 297.646 26.0032 296.425 21.4108 293.983C9.43443 287.574 2.68086 274.958 6.55291 265.902C10.3349 256.746 23.2117 254.507 35.1881 260.917C47.1644 267.327 53.918 279.943 50.0459 288.998C47.7947 294.594 42.0317 297.646 35.098 297.646ZM21.5008 258.272C15.0174 258.272 9.52448 261.121 7.36334 266.309C3.76144 274.958 10.2449 286.963 21.861 293.068C33.3871 299.172 45.7236 297.137 49.3255 288.591C52.9274 279.943 46.444 267.937 34.8279 261.833C30.3255 259.391 25.643 258.272 21.5008 258.272Z" fill="#2E0807"/>
<path d="M353.416 677.45C349.094 677.45 344.321 676.229 339.729 673.787C327.752 667.377 320.999 654.761 324.871 645.706C328.653 636.549 341.53 634.311 353.506 640.721C365.482 647.131 372.236 659.747 368.364 668.802C366.023 674.397 360.259 677.45 353.416 677.45ZM339.819 638.076C333.335 638.076 327.842 640.924 325.681 646.113C322.079 654.761 328.563 666.767 340.179 672.871C351.705 678.976 364.041 676.941 367.643 668.395C371.245 659.747 364.762 647.741 353.146 641.637C348.553 639.195 343.961 638.076 339.819 638.076Z" fill="#2E0807"/>
<path d="M370.579 662.341C374.279 653.44 367.717 641.151 355.922 634.893C344.128 628.634 331.567 630.777 327.867 639.678C324.168 648.579 330.73 660.868 342.524 667.127C354.319 673.385 366.879 671.242 370.579 662.341Z" fill="#F7B168"/>
<path d="M356.028 671.141C351.706 671.141 346.933 669.92 342.341 667.478C336.578 664.426 331.805 659.848 329.014 654.557C326.132 649.267 325.592 643.874 327.483 639.398C331.265 630.241 344.142 628.002 356.118 634.412C368.094 640.822 374.848 653.438 370.976 662.493C368.635 668.191 362.872 671.141 356.028 671.141ZM342.341 631.869C335.857 631.869 330.364 634.717 328.203 639.906C326.492 644.078 327.033 649.063 329.734 654.15C332.436 659.237 337.028 663.714 342.701 666.665C354.227 672.769 366.564 670.734 370.166 662.188C373.767 653.54 367.284 641.534 355.668 635.43C351.165 632.988 346.573 631.869 342.341 631.869Z" fill="#2E0807"/>
<path d="M573.673 285.745C571.602 285.745 569.441 285.439 567.19 284.829C559.626 282.794 552.422 277.402 546.839 269.771C541.256 262.14 538.014 253.085 537.744 244.234C537.384 235.382 540.086 227.853 545.308 223.071C555.934 213.202 574.033 217.984 585.56 233.856C591.143 241.487 594.384 250.542 594.654 259.393C595.015 268.245 592.313 275.774 587.09 280.556C583.398 284.015 578.806 285.745 573.673 285.745ZM558.635 219.104C553.863 219.104 549.45 220.731 545.849 223.987C540.896 228.566 538.375 235.789 538.645 244.336C538.915 252.882 542.157 261.733 547.56 269.262C552.962 276.791 560.076 281.98 567.46 283.913C574.754 285.846 581.597 284.422 586.55 279.844C591.503 275.265 594.024 268.041 593.754 259.495C593.484 250.949 590.242 242.097 584.839 234.568C577.545 224.598 567.55 219.104 558.635 219.104Z" fill="#2E0807"/>
<path d="M566.559 266.111L585.199 261.125L593.844 265.805C595.285 255.936 592.313 244.134 585.199 234.265C573.853 218.597 556.114 213.815 545.578 223.582C535.133 233.35 535.853 253.902 547.199 269.57C550.171 273.64 553.593 276.997 557.194 279.541L566.559 266.111Z" fill="#2E0807"/>
<path d="M557.285 280.15L556.924 279.946C553.142 277.301 549.721 273.842 546.839 269.874C541.256 262.243 538.014 253.188 537.744 244.336C537.384 235.485 540.086 227.956 545.308 223.174C555.934 213.305 574.033 218.087 585.56 233.959C592.583 243.624 595.825 255.528 594.294 265.906L594.204 266.618L585.199 261.734L566.83 266.618L557.285 280.15ZM558.635 219.104C553.863 219.104 549.45 220.732 545.849 223.988C540.896 228.566 538.375 235.79 538.645 244.336C538.915 252.883 542.157 261.734 547.56 269.263C550.351 273.129 553.593 276.283 557.105 278.929L566.289 265.702L585.199 260.717L593.394 265.194C594.654 255.223 591.413 243.929 584.749 234.671C577.545 224.598 567.55 219.104 558.635 219.104Z" fill="#2E0807"/>
<path d="M590.93 276.339C599.073 268.773 596.457 249.974 585.087 234.35C573.716 218.725 557.897 212.192 549.753 219.757C541.61 227.323 544.226 246.122 555.596 261.747C566.967 277.371 582.786 283.905 590.93 276.339Z" fill="#F5A14B"/>
<path d="M582.498 279.943C579.977 279.943 577.275 279.333 574.304 278.112C567.55 275.365 560.797 269.566 555.214 261.935C543.688 246.063 541.076 226.936 549.451 219.203C557.825 211.471 573.944 218.084 585.47 233.854C591.053 241.485 594.655 250.133 595.825 258.171C596.996 266.31 595.375 272.822 591.233 276.688C588.892 278.926 585.92 279.943 582.498 279.943ZM558.275 217.067C555.124 217.067 552.332 218.084 550.081 220.119C542.157 227.546 544.768 246.063 556.024 261.426C561.517 268.955 568.091 274.551 574.754 277.298C581.237 279.943 587.001 279.537 590.783 275.976C594.565 272.415 596.095 266.208 595.015 258.476C593.934 250.642 590.332 242.197 584.839 234.668C576.735 223.477 566.38 217.067 558.275 217.067Z" fill="#2E0807"/>
<path d="M418.702 83.1735C421.763 86.3275 430.678 80.9352 438.602 71.0662C446.526 61.1972 450.398 50.7178 447.337 47.462L442.924 41.8662L414.379 77.6794L418.702 83.1735Z" fill="#2E0807"/>
<path d="M421.132 84.599C420.052 84.599 419.151 84.2938 418.431 83.5816L413.749 77.6805L443.014 41.2568L447.696 47.2596C450.938 50.6171 447.156 61.3 438.962 71.4742C435.09 76.2561 430.858 80.2241 427.076 82.5641C424.734 83.8868 422.753 84.599 421.132 84.599ZM419.061 82.8694C420.412 84.192 423.113 83.785 426.625 81.6485C430.317 79.4101 434.459 75.5439 438.241 70.8638C445.805 61.4018 449.858 50.9223 446.976 48.0736L442.924 42.8847L414.919 77.7823L419.061 82.8694Z" fill="#2E0807"/>
<path d="M442.204 66.1834C447.607 57.9423 449.948 50.2099 447.337 47.5646L442.924 41.9688L431.668 55.9074L442.204 66.1834Z" fill="white"/>
<path d="M442.294 66.8958L431.128 56.0094L443.014 41.2568L447.697 47.2596C450.398 50.0067 448.327 57.7391 442.564 66.4889L442.294 66.8958ZM432.389 55.9077L442.114 65.3697C447.246 57.5356 449.318 50.2101 447.066 47.8701L443.014 42.6812L432.389 55.9077Z" fill="#2E0807"/>
<path d="M434.278 65.4931C442.196 55.6277 446.107 45.0598 443.012 41.8889C439.917 38.718 430.99 44.1448 423.071 54.0102C415.153 63.8756 411.243 74.4436 414.338 77.6145C417.432 80.7854 426.36 75.3584 434.278 65.4931Z" fill="#F7B168"/>
<path d="M416.72 79.1051C415.639 79.1051 414.738 78.7999 414.018 78.0877C412.397 76.3581 412.397 72.8988 414.108 68.2187C415.819 63.742 418.791 58.5532 422.663 53.7713C426.535 48.9894 430.767 45.0215 434.549 42.6814C438.511 40.2396 441.573 39.9344 443.194 41.5623C444.814 43.2919 444.814 46.7511 443.103 51.4312C441.393 55.9079 438.421 61.0967 434.549 65.8786C430.677 70.6605 426.445 74.6284 422.663 76.9685C420.411 78.3929 418.34 79.1051 416.72 79.1051ZM440.582 41.5623C439.141 41.5623 437.25 42.2744 435.089 43.5971C431.397 45.8354 427.255 49.7016 423.473 54.3818C419.691 59.0619 416.72 64.149 415.099 68.5239C413.568 72.6953 413.388 75.8493 414.739 77.172C416.089 78.4946 418.881 78.0877 422.393 75.9511C426.084 73.7128 430.227 69.8466 434.009 65.1664C437.791 60.4863 440.762 55.3992 442.383 51.0243C443.914 46.8528 444.094 43.6988 442.743 42.3762C442.203 41.8675 441.483 41.5623 440.582 41.5623Z" fill="#2E0807"/>
<path d="M180.075 763.83C175.212 768.816 161.165 760.269 148.738 744.805C136.312 729.34 130.098 712.654 134.961 707.669L141.804 698.919L186.918 755.081L180.075 763.83Z" fill="#2E0807"/>
<path d="M176.293 765.762C169.629 765.762 158.644 757.826 148.378 745.108C135.591 729.135 129.558 712.551 134.691 707.26L141.895 698.104L187.549 754.977L180.345 764.134C179.355 765.355 177.914 765.762 176.293 765.762ZM141.895 699.731L135.321 708.074C130.639 712.856 136.762 729.237 149.099 744.498C161.345 759.759 175.122 768.306 179.805 763.524L186.378 755.079L141.895 699.731Z" fill="#2E0807"/>
<path d="M143.065 737.075C134.511 724.154 130.909 711.945 134.961 707.773L141.804 699.023L159.454 721L143.065 737.075Z" fill="white"/>
<path d="M142.975 737.786L142.705 737.379C133.7 723.745 130.459 711.638 134.691 707.365L141.895 698.208L160.264 720.998L142.975 737.786ZM141.895 699.734L135.321 708.077C131.539 711.943 134.781 723.542 143.155 736.361L158.914 720.998L141.895 699.734Z" fill="#2E0807"/>
<path d="M186.978 755.156C191.841 750.173 185.681 733.547 173.219 718.021C160.757 702.494 146.712 693.947 141.849 698.93C136.986 703.913 143.146 720.539 155.608 736.065C168.07 751.592 182.115 760.139 186.978 755.156Z" fill="#F7B168"/>
<path d="M183.137 757.015C176.473 757.015 165.487 749.079 155.222 736.361C142.435 720.388 136.402 703.804 141.535 698.513C146.667 693.223 160.715 701.667 173.502 717.641C186.288 733.614 192.322 750.198 187.189 755.489C186.198 756.506 184.848 757.015 183.137 757.015ZM155.942 735.649C168.189 750.911 181.966 759.457 186.649 754.675C191.331 749.893 185.118 733.614 172.871 718.353C160.625 703.092 146.847 694.545 142.165 699.327C137.483 704.109 143.696 720.388 155.942 735.649Z" fill="#2E0807"/>
<path d="M502.986 153.378C502.986 153.378 502.986 162.433 493.081 165.485C493.081 165.485 500.284 168.334 499.114 178.203C499.114 178.203 501.905 168.538 508.479 167.927C508.479 168.029 502.446 163.959 502.986 153.378Z" fill="white"/>
<path d="M499.114 178.812H499.024C498.754 178.711 498.664 178.507 498.664 178.304C499.744 168.842 493.171 166.196 492.901 166.095C492.72 165.993 492.63 165.789 492.63 165.586C492.63 165.382 492.81 165.179 492.991 165.077C501.365 162.432 502.446 155.615 502.536 153.784C502.536 153.682 502.536 153.479 502.536 153.377C502.536 153.072 502.716 152.868 502.986 152.868C503.256 152.868 503.436 153.072 503.436 153.377C503.436 153.377 503.436 153.479 503.436 153.682C502.986 163.653 508.659 167.519 508.749 167.621C508.929 167.723 509.019 167.926 508.929 168.129C508.929 168.333 508.749 168.536 508.569 168.536C502.355 169.147 499.654 178.405 499.564 178.507C499.474 178.711 499.294 178.812 499.114 178.812ZM494.251 165.688C496.052 166.807 499.384 169.656 499.654 175.557C500.915 172.81 503.346 168.74 507.308 167.723C505.867 166.4 503.166 163.144 502.626 157.345C501.635 160.092 499.384 163.653 494.251 165.688Z" fill="#2E0807"/>
<path d="M48.5149 132.824C48.5149 132.824 53.1974 140.15 46.894 149.205C46.894 149.205 54.0978 146.661 58.4201 155.411C58.4201 155.411 55.6287 145.745 60.5813 140.862C60.6713 140.964 53.6476 141.778 48.5149 132.824Z" fill="#F38A1E"/>
<path d="M58.0599 155.716C53.9177 147.373 47.0741 149.713 46.984 149.713L45.6333 150.222L46.5338 148.899C52.0267 141.065 49.0551 134.655 48.3347 133.333C48.2447 133.231 48.2447 133.129 48.1546 133.027L48.875 132.417C48.875 132.417 48.9651 132.519 48.9651 132.62C53.8276 140.963 60.4912 140.353 60.4912 140.251L61.9319 140.149L60.8513 141.167C56.1689 145.847 58.7803 155.105 58.7803 155.207L58.0599 155.716ZM49.2352 148.391C51.4864 148.391 54.7281 149.103 57.4295 152.867C56.9793 149.815 56.7992 144.931 59.5006 141.37C57.6096 141.269 53.8276 140.455 50.2257 136.08C50.8561 139.03 50.9461 143.405 47.8845 148.391C48.3347 148.492 48.785 148.391 49.2352 148.391Z" fill="#2E0807"/>
</svg>
